# Blender v3.2.0 OBJ File: 'Pinball.blend'
# www.blender.org
mtllib Fliper.mtl
o Cylinder
v 3.537140 0.000000 -0.000000
v 2.311144 -0.112064 -0.361699
v 2.411144 -0.241949 -0.291281
v 2.278219 -0.335000 -0.176518
v 2.311144 -0.377050 -0.034883
v 2.278219 -0.361698 0.112064
v 2.411144 -0.291280 0.241949
v 2.311144 -0.176518 0.335000
v 2.411144 -0.034882 0.377050
v 2.311144 0.112064 0.361698
v 2.426578 0.241950 0.291280
v 2.366722 0.335001 0.176518
v 2.511143 0.377051 0.034882
v 2.366722 0.361699 -0.112064
v 2.426577 0.291281 -0.241950
v 2.311144 0.176518 -0.335001
v 2.411144 0.034883 -0.377051
v 0.060517 0.265275 0.440279
v 0.005510 0.060345 -0.340112
v 0.019589 0.304069 -0.271737
v 0.043174 0.507796 0.038314
v 0.019589 0.325836 0.245213
v 0.019589 0.057009 0.403793
v 0.019589 -0.245213 0.325836
v 0.043808 -0.482562 0.155744
v 0.019589 -0.367415 -0.176934
v 0.043174 -0.158928 -0.483804
v 0.535249 -0.013073 0.432172
v 0.535248 0.296348 0.314835
v 0.535248 -0.394272 -0.177463
v 0.535249 0.314836 -0.296348
v 0.535248 -0.404278 0.153308
v 0.535249 -0.177462 0.394272
v 0.535249 0.153308 0.404278
v 0.535249 0.394272 0.177463
v 0.535249 -0.296348 -0.314836
v 0.535249 0.013073 -0.432172
v 0.535249 0.177463 -0.394272
v 0.535248 0.404277 -0.153308
v 0.535249 -0.314835 0.296348
v 0.535249 -0.432172 -0.013073
v 2.927290 -0.099588 -0.260779
v 2.927290 -0.191803 -0.202818
v 2.927290 -0.254818 -0.113979
v 2.955250 -0.272386 0.040173
v 2.927290 -0.202817 0.191803
v 2.955250 -0.067122 0.267025
v 2.955250 0.141354 0.236278
v 2.955250 0.267026 0.067122
v 2.955250 0.236278 -0.141353
v 2.955250 0.067122 -0.267026
v 0.151554 -0.455558 0.111403
v 0.151554 0.400901 0.243355
v 0.151554 0.071412 -0.463512
v 0.151554 -0.400901 -0.243355
v 0.151555 0.111402 0.455558
v 0.180468 -0.180804 -0.409798
v 0.151554 0.378249 -0.277257
v 0.151555 -0.243355 0.400901
v 0.180468 0.447794 -0.010218
v 0.055182 -0.447174 -0.241606
v 0.058312 0.061598 -0.504526
v 0.058312 -0.313197 -0.400311
v 0.056658 -0.016710 0.505538
v 0.058312 0.249984 -0.442549
v 0.056658 -0.208899 0.460661
v 0.058312 0.400311 -0.313198
v 0.056658 -0.369285 0.345653
v 0.058312 0.489694 -0.136164
v 0.056658 -0.505538 -0.016710
v 0.058312 0.442549 0.249984
vt 0.727234 0.184436
vt 0.689731 0.177212
vt 0.696950 0.000000
vt 0.473513 0.180937
vt 0.455072 0.175491
vt 0.515691 0.000000
vt 0.497272 0.184634
vt 0.533551 0.177832
vt 0.563579 0.181394
vt 0.295432 0.177684
vt 0.260496 0.183191
vt 0.295977 0.000000
vt 0.341295 0.173071
vt 0.123508 0.178928
vt 0.077959 0.171390
vt 0.128991 0.000000
vt 0.169046 0.175725
vt 0.644740 0.170308
vt 0.697619 0.334893
vt 0.688018 0.860284
vt 0.727884 0.957557
vt 0.672724 0.968961
vt 0.082864 0.855980
vt 0.125142 0.956477
vt 0.064667 0.962679
vt 0.798456 0.245208
vt 0.796316 0.186963
vt 0.847910 0.249755
vt 1.000000 0.174593
vt 0.984692 0.220269
vt 0.978225 0.120416
vt 0.756514 0.329694
vt 0.729481 0.361684
vt 0.450214 0.327371
vt 0.514906 0.363049
vt 0.479997 0.369772
vt 0.573898 0.330033
vt 0.546934 0.371213
vt 0.243411 0.330857
vt 0.309086 0.334766
vt 0.274629 0.362244
vt 0.066227 0.324365
vt 0.367567 0.321856
vt 0.341828 0.359697
vt 0.132905 0.308724
vt 0.097008 0.346523
vt 0.632368 0.323267
vt 0.190009 0.324787
vt 0.163999 0.346751
vt 0.046110 0.850137
vt 0.662216 0.360531
vt 0.425593 0.347479
vt 0.425705 0.851831
vt 0.393318 0.943594
vt 0.158472 0.854856
vt 0.501908 0.859745
vt 0.462472 0.857577
vt 0.612225 0.852971
vt 0.648553 0.858343
vt 0.565280 0.852623
vt 0.538010 0.858005
vt 0.318424 0.859614
vt 0.278928 0.859808
vt 0.382651 0.848795
vt 0.354847 0.855747
vt 0.185816 0.848060
vt 0.242372 0.856298
vt 0.526902 0.967681
vt 0.443359 0.964613
vt 0.116260 0.998670
vt 0.064660 0.991251
vt 0.537224 0.999199
vt 0.499616 0.997080
vt 0.000000 0.944351
vt 0.011390 0.979748
vt 0.445273 0.994137
vt 0.593223 0.958800
vt 0.676176 0.997232
vt 0.630014 0.993958
vt 0.401634 0.985391
vt 0.348334 0.965963
vt 0.382651 0.988307
vt 0.321888 0.996932
vt 0.264555 0.967884
vt 0.756514 0.990867
vt 0.725358 1.000000
vt 0.200676 0.954803
vt 0.589138 0.986823
vt 0.275682 0.997126
vt 0.584564 0.844985
vt 0.181478 0.958326
vt 0.190009 0.985348
vt 0.154951 0.992325
vt 0.232966 0.992991
vt 0.978962 0.055414
vt 1.000000 0.108589
vt 0.573898 0.988808
vt 0.890927 0.044909
vt 0.948955 0.021336
vt 0.920977 0.249906
vt 0.767180 0.117260
vt 0.831639 0.046403
vt 0.900159 0.000000
vt 0.853827 0.003586
vt 0.858529 0.283257
vt 0.904718 0.284644
vt 0.781496 0.070696
vt 0.812158 0.028411
vt 0.947822 0.264481
vt 0.769479 0.180219
vt 0.745367 0.181040
vt 0.017653 0.840998
vt 0.214320 0.849620
vn 0.2975 -0.3065 -0.9042
vn 0.3195 0.2542 -0.9128
vn 1.0000 0.0015 0.0002
vn 0.2999 -0.6577 -0.6910
vn 0.2864 -0.8857 -0.3654
vn 0.3149 -0.9380 0.1450
vn 0.2858 -0.7000 0.6544
vn 0.3137 -0.2032 0.9275
vn 0.3157 0.4859 0.8150
vn 0.3282 0.9143 0.2375
vn 0.3242 0.8086 -0.4911
vn 0.1261 0.0912 -0.9878
vn 0.0516 0.0180 -0.9985
vn 0.2476 -0.3863 -0.8885
vn 0.2765 0.1487 -0.9494
vn 0.0492 0.9152 0.4000
vn 0.2472 0.9688 -0.0169
vn 0.2707 0.8197 0.5047
vn -0.2779 0.5108 0.8136
vn -0.9764 0.1682 0.1354
vn -0.9741 0.0379 0.2231
vn -0.3101 -0.9460 -0.0941
vn -0.4924 -0.8179 0.2977
vn -0.9835 -0.1698 -0.0627
vn 0.1248 -0.6444 -0.7544
vn 0.0690 -0.2973 -0.9523
vn 0.0979 -0.9908 -0.0929
vn 0.0711 -0.8913 -0.4478
vn 0.1334 -0.7682 0.6262
vn 0.0708 -0.9570 0.2814
vn 0.1313 -0.0855 0.9876
vn 0.0720 -0.4636 0.8831
vn 0.1338 0.6201 0.7730
vn 0.0707 0.2947 0.9530
vn 0.1580 0.9834 0.0893
vn 0.0817 0.8736 0.4797
vn 0.1307 0.7440 -0.6552
vn 0.0738 0.9483 -0.3086
vn 0.0489 0.6769 0.7345
vn 0.0701 0.4612 -0.8845
vn 0.0483 -0.6899 -0.7223
vn 0.0479 0.9298 -0.3650
vn 0.0494 -0.9980 -0.0406
vn 0.0574 -0.9145 -0.4005
vn 0.0568 0.7210 -0.6906
vn 0.0492 0.4180 -0.9071
vn 0.0493 -0.7344 0.6769
vn 0.0574 -0.9298 0.3635
vn 0.0491 -0.0406 0.9980
vn 0.0571 -0.4005 0.9145
vn 0.0571 0.3635 0.9298
vn 0.2581 -0.9370 0.2356
vn 0.2695 -0.8315 -0.4858
vn -0.4580 0.8846 0.0876
vn -0.3444 0.8190 0.4589
vn 0.2369 0.2218 0.9459
vn -0.3738 -0.8290 -0.4160
vn 0.2804 0.7681 -0.5757
vn -0.3670 0.0997 -0.9249
vn -0.2977 0.4713 -0.8302
vn -0.3268 -0.6040 -0.7269
vn -0.3143 -0.0677 0.9469
vn 0.2628 -0.5013 0.8244
vn -0.4397 -0.2596 -0.8598
vn -0.3627 0.7308 -0.5782
vn -0.3689 -0.3338 0.8674
vn -0.3272 0.9027 -0.2793
vn -0.2979 -0.7213 0.6253
vn -0.9889 0.0308 -0.1450
vn -0.9795 -0.1242 0.1584
vn -0.9788 0.1639 -0.1231
g Cylinder_Cylinder_Fliper_Texture
usemtl Fliper_Texture
s 1
f 42/1/1 51/2/2 1/3/3
f 43/4/4 42/5/1 1/6/3
f 44/7/5 43/4/4 1/6/3
f 45/8/6 44/7/5 1/6/3
f 46/9/7 45/8/6 1/6/3
f 47/10/8 46/11/7 1/12/3
f 48/13/9 47/10/8 1/12/3
f 49/14/10 48/15/9 1/16/3
f 50/17/11 49/14/10 1/16/3
f 51/2/2 50/18/11 1/3/3
f 42/1/1 17/19/12 51/2/2
f 37/20/13 57/21/14 54/22/15
f 35/23/16 60/24/17 53/25/18
f 18/26/19 22/27/20 23/28/21
f 70/29/22 25/30/23 26/31/24
f 42/1/1 3/32/25 2/33/26
f 44/7/5 3/34/25 43/4/4
f 44/7/5 5/35/27 4/36/28
f 45/8/6 7/37/29 6/38/30
f 6/38/30 5/35/27 45/8/6
f 47/10/8 7/39/29 46/11/7
f 48/13/9 9/40/31 47/10/8
f 9/40/31 8/41/32 47/10/8
f 49/14/10 11/42/33 48/15/9
f 11/43/33 10/44/34 48/13/9
f 50/17/11 13/45/35 49/14/10
f 13/45/35 12/46/36 49/14/10
f 51/2/2 15/47/37 50/18/11
f 15/48/37 14/49/38 50/17/11
f 29/50/39 12/46/36 35/23/16
f 17/19/12 16/51/40 51/2/2
f 2/52/26 36/53/41 57/54/14
f 13/45/35 39/55/42 60/24/17
f 4/36/28 41/56/43 30/57/44
f 31/58/45 16/51/40 38/59/46
f 6/38/30 40/60/47 32/61/48
f 8/41/32 28/62/49 33/63/50
f 10/44/34 29/64/39 34/65/51
f 37/20/13 2/33/26 57/21/14
f 35/23/16 13/45/35 60/24/17
f 36/53/41 4/36/28 30/57/44
f 14/49/38 31/66/45 39/55/42
f 41/56/43 6/38/30 32/61/48
f 16/51/40 37/20/13 38/59/46
f 40/67/47 8/41/32 33/63/50
f 28/62/49 10/44/34 34/65/51
f 41/56/43 32/61/48 52/68/52
f 55/69/53 41/56/43 52/68/52
f 53/25/18 21/70/54 71/71/55
f 52/68/52 25/72/23 70/73/22
f 29/50/39 35/23/16 53/25/18
f 56/74/56 29/50/39 53/25/18
f 55/69/53 52/68/52 70/73/22
f 53/25/18 71/71/55 18/75/19
f 55/69/53 70/73/22 61/76/57
f 58/77/58 38/59/46 54/22/15
f 56/74/56 53/25/18 18/75/19
f 38/59/46 37/20/13 54/22/15
f 36/53/41 30/57/44 55/69/53
f 54/22/15 62/78/59 65/79/60
f 55/69/53 61/76/57 63/80/61
f 28/62/49 34/65/51 56/81/56
f 57/54/14 36/53/41 55/69/53
f 57/54/14 55/69/53 63/80/61
f 56/81/56 18/82/19 64/83/62
f 59/84/63 28/62/49 56/81/56
f 58/77/58 54/22/15 65/79/60
f 57/21/14 63/85/61 27/86/64
f 52/87/52 40/67/47 59/84/63
f 59/84/63 56/81/56 64/83/62
f 58/77/58 65/79/60 67/88/65
f 54/22/15 57/21/14 27/86/64
f 59/84/63 64/83/62 66/89/66
f 39/90/42 31/58/45 58/77/58
f 54/22/15 27/86/64 62/78/59
f 40/67/47 33/63/50 59/84/63
f 58/91/58 67/92/65 69/93/67
f 59/84/63 66/89/66 68/94/68
f 60/24/17 39/55/42 58/91/58
f 60/24/17 58/91/58 69/93/67
f 26/31/24 63/95/61 61/96/57
f 52/87/52 59/84/63 68/94/68
f 60/24/17 69/93/67 21/70/54
f 52/68/52 68/97/68 25/72/23
f 53/25/18 60/24/17 21/70/54
f 26/31/24 19/98/69 27/99/64
f 25/30/23 19/98/69 26/31/24
f 24/100/70 19/98/69 25/30/23
f 23/28/21 19/98/69 24/100/70
f 22/27/20 19/98/69 23/28/21
f 21/101/54 19/98/69 22/27/20
f 20/102/71 19/98/69 21/101/54
f 62/103/59 27/99/64 19/98/69
f 19/98/69 65/104/60 62/103/59
f 64/105/62 18/26/19 23/28/21
f 23/28/21 66/106/66 64/105/62
f 20/102/71 69/107/67 67/108/65
f 67/108/65 65/104/60 20/102/71
f 68/109/68 66/106/66 24/100/70
f 25/30/23 68/109/68 24/100/70
f 71/110/55 21/101/54 22/27/20
f 61/96/57 70/29/22 26/31/24
f 18/26/19 71/110/55 22/27/20
f 42/1/1 2/33/26 17/19/12
f 42/1/1 43/111/4 3/32/25
f 44/7/5 4/36/28 3/34/25
f 44/7/5 45/8/6 5/35/27
f 45/8/6 46/9/7 7/37/29
f 47/10/8 8/41/32 7/39/29
f 48/13/9 10/44/34 9/40/31
f 49/14/10 12/46/36 11/42/33
f 50/17/11 14/49/38 13/45/35
f 51/2/2 16/51/40 15/47/37
f 29/50/39 11/42/33 12/46/36
f 2/52/26 3/34/25 36/53/41
f 13/45/35 14/49/38 39/55/42
f 4/36/28 5/35/27 41/56/43
f 31/58/45 15/47/37 16/51/40
f 6/38/30 7/37/29 40/60/47
f 8/41/32 9/40/31 28/62/49
f 10/44/34 11/43/33 29/64/39
f 37/20/13 17/19/12 2/33/26
f 35/23/16 12/46/36 13/45/35
f 36/53/41 3/34/25 4/36/28
f 14/49/38 15/48/37 31/66/45
f 41/56/43 5/35/27 6/38/30
f 16/51/40 17/19/12 37/20/13
f 40/67/47 7/39/29 8/41/32
f 28/62/49 9/40/31 10/44/34
f 55/69/53 30/57/44 41/56/43
f 56/74/56 34/112/51 29/50/39
f 58/77/58 31/58/45 38/59/46
f 59/84/63 33/63/50 28/62/49
f 52/87/52 32/113/48 40/67/47
f 26/31/24 27/99/64 63/95/61
f 19/98/69 20/102/71 65/104/60
f 23/28/21 24/100/70 66/106/66
f 20/102/71 21/101/54 69/107/67
