# Blender v3.2.0 OBJ File: 'Pinball.blend'
# www.blender.org
mtllib FliperGateMetal.mtl
o Gate.001_Cube.002
v 0.250000 1.400000 0.100000
v 0.250000 1.400000 -0.100000
v 0.150000 0.000000 0.000000
v 0.350000 1.400000 0.000000
v 0.250000 1.500000 0.000000
v 0.150000 1.400000 0.000000
v 0.350000 -0.000000 0.000000
v 0.250000 -0.000000 0.100000
v 0.250000 -0.000000 -0.100000
v 0.750000 1.400000 0.100000
v 0.750000 1.400000 -0.100000
v 0.650000 0.000000 0.000000
v 0.850000 1.400000 0.000000
v 0.750000 1.500000 0.000000
v 0.650000 1.400000 0.000000
v 0.850000 -0.000000 0.000000
v 0.750000 -0.000000 0.100000
v 0.750000 -0.000000 -0.100000
v 1.250000 1.400000 0.100000
v 1.250000 1.400000 -0.100000
v 1.150000 0.000000 0.000000
v 1.350000 1.400000 0.000000
v 1.250000 1.500000 0.000000
v 1.150000 1.400000 0.000000
v 1.350000 -0.000000 0.000000
v 1.250000 -0.000000 0.100000
v 1.250000 -0.000000 -0.100000
v 1.750000 1.400000 0.100000
v 1.750000 1.400000 -0.100000
v 1.650000 0.000000 0.000000
v 1.850000 1.400000 0.000000
v 1.750000 1.500000 0.000000
v 1.650000 1.400000 0.000000
v 1.850000 -0.000000 0.000000
v 1.750000 -0.000000 0.100000
v 1.750000 -0.000000 -0.100000
v 2.250000 1.400000 0.100000
v 2.250000 1.400000 -0.100000
v 2.150000 0.000000 0.000000
v 2.350000 1.400000 0.000000
v 2.250000 1.500000 0.000000
v 2.150000 1.400000 0.000000
v 2.350000 -0.000000 0.000000
v 2.250000 -0.000000 0.100000
v 2.250000 -0.000000 -0.100000
v 2.750000 1.400000 0.100000
v 2.750000 1.400000 -0.100000
v 2.650000 0.000000 0.000000
v 2.850000 1.400000 0.000000
v 2.750000 1.500000 0.000000
v 2.650000 1.400000 0.000000
v 2.850000 -0.000000 0.000000
v 2.750000 -0.000000 0.100000
v 2.750000 -0.000000 -0.100000
v 0.100000 0.010000 -0.050000
v 2.900000 0.010000 -0.050000
v 0.100000 0.110000 -0.050000
v 3.000000 0.010000 -0.050000
v 0.000000 0.010000 -0.050000
v 0.000000 0.110000 -0.050000
v 0.100000 1.010000 -0.050000
v 0.000000 1.010000 -0.050000
v 0.100000 1.110000 -0.050000
v 2.900000 1.010000 -0.050000
v 2.900000 1.110000 -0.050000
v 3.000000 1.010000 -0.050000
v 2.900000 0.110000 -0.050000
v 3.000000 0.110000 -0.050000
v 0.100000 0.110000 0.050000
v 0.100000 0.010000 0.050000
v 2.900000 0.010000 0.050000
v 3.000000 0.010000 0.050000
v 0.000000 0.110000 0.050000
v 0.000000 0.010000 0.050000
v 0.100000 1.010000 0.050000
v 0.000000 1.010000 0.050000
v 0.100000 1.110000 0.050000
v 2.900000 1.010000 0.050000
v 2.900000 1.110000 0.050000
v 3.000000 1.010000 0.050000
v 2.900000 0.110000 0.050000
v 3.000000 0.110000 0.050000
vt 0.820603 0.378864
vt 0.798567 0.380446
vt 0.819029 0.356713
vt 0.842639 0.377282
vt 0.820603 0.311700
vt 0.819029 0.333851
vt 0.798567 0.310117
vt 0.842639 0.313282
vt 0.932197 0.355977
vt 0.954289 0.666885
vt 0.932197 0.666885
vt 0.842639 0.688982
vt 0.820603 0.690564
vt 0.842639 0.001582
vt 0.820603 0.000000
vt 0.976381 0.355977
vt 0.976381 0.666885
vt 0.421477 0.666885
vt 0.399385 0.666885
vt 0.421477 0.644677
vt 0.443569 0.666885
vt 0.509418 0.666885
vt 0.509418 0.644677
vt 0.531510 0.666885
vt 0.487326 0.666885
vt 0.443569 0.977792
vt 0.421477 0.977792
vt 0.399385 0.977792
vt 0.509418 0.977792
vt 0.531510 0.977792
vt 0.487326 0.977792
vt 0.710199 0.666885
vt 0.688107 0.666885
vt 0.710199 0.644677
vt 0.732291 0.666885
vt 0.576345 0.666885
vt 0.576345 0.644677
vt 0.598437 0.666885
vt 0.554253 0.666885
vt 0.732291 0.977792
vt 0.710199 0.977792
vt 0.688107 0.977792
vt 0.576345 0.977792
vt 0.598437 0.977792
vt 0.554253 0.977792
vt 0.954289 0.022208
vt 0.932197 0.022208
vt 0.954289 0.000000
vt 0.976381 0.022208
vt 0.643272 0.666885
vt 0.643272 0.644677
vt 0.665364 0.666885
vt 0.621180 0.666885
vt 0.976381 0.333115
vt 0.954289 0.333115
vt 0.932197 0.333115
vt 0.643272 0.977792
vt 0.665364 0.977792
vt 0.621180 0.977792
vt 0.887418 0.022151
vt 0.865382 0.023734
vt 0.885844 0.000000
vt 0.909454 0.020569
vt 0.287791 0.956377
vt 0.286217 0.978528
vt 0.265755 0.954794
vt 0.309827 0.957959
vt 0.000000 0.689093
vt 0.022092 1.000000
vt 0.000000 1.000000
vt 0.909454 0.332269
vt 0.887418 0.333851
vt 0.309827 0.646259
vt 0.287791 0.644677
vt 0.044184 0.689093
vt 0.044184 1.000000
vt 0.887418 0.378864
vt 0.865382 0.380446
vt 0.885844 0.356713
vt 0.909454 0.377282
vt 0.354606 0.956377
vt 0.353032 0.978528
vt 0.332570 0.954794
vt 0.376641 0.957959
vt 0.066927 0.689093
vt 0.089019 1.000000
vt 0.066927 1.000000
vt 0.909454 0.688982
vt 0.887418 0.690564
vt 0.376641 0.646259
vt 0.354606 0.644677
vt 0.111111 0.689093
vt 0.111111 1.000000
vt 0.187840 0.943230
vt 0.219083 0.911824
vt 0.219083 0.943230
vt 0.187840 0.911824
vt 0.133854 0.943230
vt 0.165097 0.911824
vt 0.165097 0.943230
vt 0.133854 0.911824
vt 0.798567 0.967564
vt 0.829810 0.936157
vt 0.829810 0.967564
vt 0.798567 0.936157
vt 0.852553 0.967564
vt 0.883796 0.936157
vt 0.883796 0.967564
vt 0.852553 0.936157
vt 0.960525 0.967564
vt 0.991768 0.936157
vt 0.991768 0.967564
vt 0.960525 0.936157
vt 0.906539 0.967564
vt 0.937782 0.936157
vt 0.937782 0.967564
vt 0.906539 0.936157
vt 0.000000 0.644023
vt 0.022092 0.022208
vt 0.000000 0.022208
vt 0.022092 0.000000
vt 0.000000 0.666230
vt 0.022092 0.644023
vt 0.220920 0.666230
vt 0.022092 0.666230
vt 0.243012 0.644023
vt 0.220920 0.644023
vt 0.243012 0.022208
vt 0.220920 0.000000
vt 0.220920 0.022208
vt 0.000000 0.644023
vt 0.022092 0.022208
vt 0.022092 0.644023
vt 0.000000 0.022208
vt 0.022092 0.000000
vt 0.000000 0.666230
vt 0.220920 0.666230
vt 0.022092 0.666230
vt 0.220920 0.644023
vt 0.243012 0.644023
vt 0.243012 0.022208
vt 0.220920 0.022208
vt 0.220920 0.000000
vt 0.000000 0.000000
vt 0.000000 0.000000
vt 0.954289 0.355977
vt 0.022092 0.689093
vt 0.089019 0.689093
vn 0.5773 0.5773 0.5774
vn -0.5774 0.5774 0.5774
vn 0.5773 0.5773 -0.5774
vn -0.5774 0.5774 -0.5774
vn -0.7071 0.0000 0.7071
vn 0.7071 0.0000 0.7071
vn 0.7071 0.0000 -0.7071
vn -0.7071 0.0000 -0.7071
vn 0.5773 0.5774 0.5774
vn -0.5773 0.5774 0.5773
vn 0.5773 0.5774 -0.5774
vn -0.5773 0.5774 -0.5773
vn 0.5774 0.5773 0.5774
vn 0.5774 0.5773 -0.5774
vn 0.5774 0.5774 0.5774
vn -0.5774 0.5774 0.5773
vn 0.5774 0.5774 -0.5774
vn -0.5774 0.5774 -0.5773
vn -0.0000 -1.0000 -0.0000
vn 0.0000 -0.0000 -1.0000
vn 0.0000 0.0000 1.0000
vn -1.0000 0.0000 0.0000
vn -0.7071 0.7071 0.0000
vn 1.0000 0.0000 0.0000
vn 0.0000 1.0000 -0.0000
vn 0.7071 0.7071 0.0000
g Gate.001_Cube.002_FliperGate_Texture
usemtl FliperGate_Texture
s off
f 1/1/1 4/2/1 5/3/1
f 5/3/2 6/4/2 1/1/2
f 2/5/3 5/6/3 4/7/3
f 5/6/4 2/5/4 6/8/4
f 1/9/5 3/10/5 8/11/5
f 4/2/6 8/12/6 7/13/6
f 9/14/7 4/7/7 7/15/7
f 3/10/8 2/16/8 9/17/8
f 10/18/9 13/19/9 14/20/9
f 14/20/10 15/21/10 10/18/10
f 11/22/11 14/23/11 13/24/11
f 14/23/12 11/22/12 15/25/12
f 10/18/5 12/26/5 17/27/5
f 13/19/6 17/27/6 16/28/6
f 18/29/7 13/24/7 16/30/7
f 12/31/8 11/22/8 18/29/8
f 19/32/13 22/33/13 23/34/13
f 23/34/2 24/35/2 19/32/2
f 20/36/14 23/37/14 22/38/14
f 23/37/4 20/36/4 24/39/4
f 19/32/5 21/40/5 26/41/5
f 22/33/6 26/41/6 25/42/6
f 27/43/7 22/38/7 25/44/7
f 21/45/8 20/36/8 27/43/8
f 28/46/13 31/47/13 32/48/13
f 32/48/2 33/49/2 28/46/2
f 29/50/14 32/51/14 31/52/14
f 32/51/4 29/50/4 33/53/4
f 28/46/5 30/54/5 35/55/5
f 31/47/6 35/55/6 34/56/6
f 36/57/7 31/52/7 34/58/7
f 33/53/8 36/57/8 30/59/8
f 37/60/15 40/61/15 41/62/15
f 41/62/16 42/63/16 37/60/16
f 38/64/17 41/65/17 40/66/17
f 41/65/18 38/64/18 42/67/18
f 37/68/5 39/69/5 44/70/5
f 40/61/6 44/71/6 43/72/6
f 45/73/7 40/66/7 43/74/7
f 39/69/8 38/75/8 45/76/8
f 46/77/15 49/78/15 50/79/15
f 50/79/16 51/80/16 46/77/16
f 47/81/17 50/82/17 49/83/17
f 50/82/18 47/81/18 51/84/18
f 46/85/5 48/86/5 53/87/5
f 49/78/6 53/88/6 52/89/6
f 54/90/7 49/83/7 52/91/7
f 48/86/8 47/92/8 54/93/8
f 3/94/19 7/95/19 8/96/19
f 3/94/19 9/97/19 7/95/19
f 12/98/19 16/99/19 17/100/19
f 12/98/19 18/101/19 16/99/19
f 21/102/19 25/103/19 26/104/19
f 21/102/19 27/105/19 25/103/19
f 30/106/19 34/107/19 35/108/19
f 30/106/19 36/109/19 34/107/19
f 39/110/19 43/111/19 44/112/19
f 39/110/19 45/113/19 43/111/19
f 48/114/19 52/115/19 53/116/19
f 48/114/19 54/117/19 52/115/19
f 55/118/20 67/119/20 56/120/20
f 68/121/20 56/120/20 67/119/20
f 59/122/20 57/123/20 55/118/20
f 62/124/20 57/123/20 60/125/20
f 62/124/20 63/126/20 61/127/20
f 65/128/20 61/127/20 63/126/20
f 65/128/20 66/129/20 64/130/20
f 68/121/20 64/130/20 66/129/20
f 70/131/21 81/132/21 69/133/21
f 71/134/21 82/135/21 81/132/21
f 69/133/21 74/136/21 70/131/21
f 69/133/21 76/137/21 73/138/21
f 76/137/21 75/139/21 77/140/21
f 75/139/21 79/141/21 77/140/21
f 79/141/21 78/142/21 80/143/21
f 78/142/21 82/135/21 80/143/21
f 58/144/19 71/134/19 56/120/19
f 67/119/22 78/142/22 64/130/22
f 62/124/23 77/140/23 63/126/23
f 59/122/22 73/138/22 60/125/22
f 66/129/24 82/135/24 68/121/24
f 64/130/19 75/139/19 61/127/19
f 55/118/19 74/136/19 59/122/19
f 57/123/25 81/132/25 67/119/25
f 63/126/25 79/141/25 65/128/25
f 58/144/24 82/135/24 72/145/24
f 61/127/24 69/133/24 57/123/24
f 65/128/26 80/143/26 66/129/26
f 60/125/22 76/137/22 62/124/22
f 56/120/19 70/131/19 55/118/19
f 1/9/5 6/146/5 3/10/5
f 4/2/6 1/1/6 8/12/6
f 9/14/7 2/5/7 4/7/7
f 3/10/8 6/146/8 2/16/8
f 10/18/5 15/21/5 12/26/5
f 13/19/6 10/18/6 17/27/6
f 18/29/7 11/22/7 13/24/7
f 12/31/8 15/25/8 11/22/8
f 19/32/5 24/35/5 21/40/5
f 22/33/6 19/32/6 26/41/6
f 27/43/7 20/36/7 22/38/7
f 21/45/8 24/39/8 20/36/8
f 28/46/5 33/49/5 30/54/5
f 31/47/6 28/46/6 35/55/6
f 36/57/7 29/50/7 31/52/7
f 33/53/8 29/50/8 36/57/8
f 37/68/5 42/147/5 39/69/5
f 40/61/6 37/60/6 44/71/6
f 45/73/7 38/64/7 40/66/7
f 39/69/8 42/147/8 38/75/8
f 46/85/5 51/148/5 48/86/5
f 49/78/6 46/77/6 53/88/6
f 54/90/7 47/81/7 49/83/7
f 48/86/8 51/148/8 47/92/8
f 55/118/20 57/123/20 67/119/20
f 68/121/20 58/144/20 56/120/20
f 59/122/20 60/125/20 57/123/20
f 62/124/20 61/127/20 57/123/20
f 65/128/20 64/130/20 61/127/20
f 68/121/20 67/119/20 64/130/20
f 70/131/21 71/134/21 81/132/21
f 71/134/21 72/145/21 82/135/21
f 69/133/21 73/138/21 74/136/21
f 69/133/21 75/139/21 76/137/21
f 75/139/21 78/142/21 79/141/21
f 78/142/21 81/132/21 82/135/21
f 58/144/19 72/145/19 71/134/19
f 67/119/22 81/132/22 78/142/22
f 62/124/23 76/137/23 77/140/23
f 59/122/22 74/136/22 73/138/22
f 66/129/24 80/143/24 82/135/24
f 64/130/19 78/142/19 75/139/19
f 55/118/19 70/131/19 74/136/19
f 57/123/25 69/133/25 81/132/25
f 63/126/25 77/140/25 79/141/25
f 58/144/24 68/121/24 82/135/24
f 61/127/24 75/139/24 69/133/24
f 65/128/26 79/141/26 80/143/26
f 60/125/22 73/138/22 76/137/22
f 56/120/19 71/134/19 70/131/19
