# Blender v3.2.0 OBJ File: 'Pinball.blend'
# www.blender.org
mtllib Glass.mtl
o Glass_Cube.012
v -10.200000 5.800000 12.200000
v -10.200000 6.100000 12.200000
v -10.200000 5.800000 -19.200001
v -10.200000 6.100000 -19.200001
v 12.200000 5.800000 12.200000
v 12.200000 6.100000 12.200000
v 12.200000 5.800000 -19.200001
v 12.200000 6.100000 -19.200001
vt 0.985476 0.000001
vt 0.979126 0.694902
vt 0.979126 0.000001
vt 0.993650 1.000000
vt 1.000000 0.504274
vt 1.000000 1.000000
vt 0.970952 0.000000
vt 0.964602 0.694903
vt 0.964602 0.000000
vt 0.993650 0.495727
vt 1.000000 0.000001
vt 1.000000 0.495727
vt 0.474127 0.000000
vt 0.000000 0.694903
vt 0.000000 0.000000
vt 0.985476 0.694902
vt 0.993650 0.504274
vt 0.970952 0.694903
vt 0.993650 0.000001
vt 0.474127 0.694903
vn -1.0000 0.0000 0.0000
vn 0.0000 0.0000 -1.0000
vn 1.0000 0.0000 0.0000
vn 0.0000 0.0000 1.0000
vn 0.0000 1.0000 0.0000
g Glass_Cube.012_GlassTexture
usemtl GlassTexture
s off
f 2/1/1 3/2/1 1/3/1
f 4/4/2 7/5/2 3/6/2
f 8/7/3 5/8/3 7/9/3
f 6/10/4 1/11/4 5/12/4
f 4/13/5 6/14/5 8/15/5
f 2/1/1 4/16/1 3/2/1
f 4/4/2 8/17/2 7/5/2
f 8/7/3 6/18/3 5/8/3
f 6/10/4 2/19/4 1/11/4
f 4/13/5 2/20/5 6/14/5
