# Blender v3.1.2 OBJ File: 'Pinball.blend'
# www.blender.org
mtllib VampArm.mtl
o Arm_Cube
v -0.100000 -0.300000 0.000000
v -0.100000 -0.100000 0.000000
v 2.000000 -0.300000 0.000000
v 2.000000 -0.100000 0.000000
v -0.300000 -0.100000 0.000000
v -0.100000 0.100000 0.000000
v -0.300000 0.100000 0.000000
v -0.100000 0.300000 0.000000
v 2.000000 0.100000 0.000000
v 2.000000 0.300000 0.000000
v 2.200000 -0.100000 0.000000
v 2.200000 0.100000 0.000000
v -0.100000 -0.300000 -0.100000
v -0.100000 -0.100000 -0.100000
v 2.000000 -0.300000 -0.100000
v 2.000000 -0.100000 -0.100000
v -0.300000 -0.100000 -0.100000
v -0.100000 0.100000 -0.100000
v -0.300000 0.100000 -0.100000
v -0.100000 0.300000 -0.100000
v 2.000000 0.100000 -0.100000
v 2.000000 0.300000 -0.100000
v 2.200000 -0.100000 -0.100000
v 2.200000 0.100000 -0.100000
vt 0.375000 0.750000
vt 0.625000 0.750000
vt 0.625000 1.000000
vt 0.375000 1.000000
vt 0.625000 0.750000
vt 0.625000 0.750000
vt 0.625000 1.000000
vt 0.625000 1.000000
vt 0.625000 1.000000
vt 0.625000 1.000000
vt 0.625000 0.750000
vt 0.625000 1.000000
vt 0.625000 1.000000
vt 0.375000 0.750000
vt 0.375000 1.000000
vt 0.625000 1.000000
vt 0.625000 0.750000
vt 0.625000 0.750000
vt 0.625000 1.000000
vt 0.625000 0.750000
vt 0.625000 1.000000
vt 0.625000 1.000000
vt 0.625000 1.000000
vt 0.625000 0.750000
vt 0.625000 1.000000
vt 0.625000 1.000000
vn 0.0000 0.0000 1.0000
vn 0.0000 0.0000 -1.0000
vn 0.0000 -1.0000 0.0000
vn 0.0000 1.0000 0.0000
vn 1.0000 0.0000 0.0000
vn -1.0000 0.0000 0.0000
vn 0.7071 0.7071 0.0000
vn 0.7071 -0.7071 0.0000
vn -0.7071 -0.7071 0.0000
vn -0.7071 0.7071 0.0000
usemtl Metal
s off
f 3/1/1 4/2/1 2/3/1 1/4/1
f 9/5/1 12/6/1 10/7/1
f 5/8/1 2/3/1 6/9/1 7/10/1
f 4/2/1 3/1/1 11/11/1
f 8/12/1 6/9/1 9/13/1 10/7/1
f 2/3/1 5/8/1 1/4/1
f 4/2/1 11/11/1 12/6/1 9/5/1
f 7/10/1 6/9/1 8/12/1
f 15/14/2 13/15/2 14/16/2 16/17/2
f 21/18/2 22/19/2 24/20/2
f 17/21/2 19/22/2 18/23/2 14/16/2
f 16/17/2 23/24/2 15/14/2
f 20/25/2 22/19/2 21/26/2 18/23/2
f 14/16/2 13/15/2 17/21/2
f 16/17/2 21/18/2 24/20/2 23/24/2
f 19/22/2 20/25/2 18/23/2
f 3/1/3 1/4/3 13/15/3 15/14/3
f 2/3/4 4/2/4 16/17/4 14/16/4
f 6/9/5 2/3/5 14/16/5 18/23/5
f 5/8/6 7/10/6 19/22/6 17/21/6
f 9/13/3 6/9/3 18/23/3 21/26/3
f 8/12/4 10/7/4 22/19/4 20/25/4
f 10/7/7 12/6/7 24/20/7 22/19/7
f 11/11/8 3/1/8 15/14/8 23/24/8
f 12/6/5 11/11/5 23/24/5 24/20/5
f 1/4/9 5/8/9 17/21/9 13/15/9
f 4/2/6 9/5/6 21/18/6 16/17/6
f 7/10/10 8/12/10 20/25/10 19/22/10
o Bolt_Cylinder.002
v -0.000000 0.100000 -0.200000
v -0.000000 0.100000 0.000000
v 0.070711 0.070711 -0.200000
v 0.070711 0.070711 0.000000
v 0.100000 -0.000000 -0.200000
v 0.100000 -0.000000 0.000000
v 0.070711 -0.070711 -0.200000
v 0.070711 -0.070711 0.000000
v -0.000000 -0.100000 -0.200000
v -0.000000 -0.100000 0.000000
v -0.070711 -0.070711 -0.200000
v -0.070711 -0.070711 0.000000
v -0.100000 -0.000000 -0.200000
v -0.100000 -0.000000 0.000000
v -0.070711 0.070711 -0.200000
v -0.070711 0.070711 0.000000
v -0.000000 0.140000 -0.000000
v 0.098995 0.098995 -0.000000
v 0.140000 -0.000000 -0.000000
v 0.098995 -0.098995 -0.000000
v -0.000000 -0.140000 0.000000
v -0.098995 -0.098995 -0.000000
v -0.140000 -0.000000 -0.000000
v -0.098995 0.098995 -0.000000
v -0.000000 0.140000 0.100000
v 0.098995 0.098995 0.100000
v 0.140000 -0.000000 0.100000
v 0.098995 -0.098995 0.100000
v -0.000000 -0.140000 0.100000
v -0.098995 -0.098995 0.100000
v -0.140000 -0.000000 0.100000
v -0.098995 0.098995 0.100000
v -0.000000 0.140000 -0.200000
v 0.098995 0.098995 -0.200000
v 0.140000 -0.000000 -0.200000
v 0.098995 -0.098995 -0.200000
v -0.000000 -0.140000 -0.200000
v -0.098995 -0.098995 -0.200000
v -0.140000 -0.000000 -0.200000
v -0.098995 0.098995 -0.200000
v -0.000000 0.140000 -0.300000
v 0.098995 0.098995 -0.300000
v 0.140000 -0.000000 -0.300000
v 0.098995 -0.098995 -0.300000
v -0.000000 -0.140000 -0.300000
v -0.098995 -0.098995 -0.300000
v -0.140000 -0.000000 -0.300000
v -0.098995 0.098995 -0.300000
vt 1.000000 0.500000
vt 1.000000 1.000000
vt 0.875000 1.000000
vt 0.875000 0.500000
vt 0.750000 1.000000
vt 0.750000 0.500000
vt 0.625000 1.000000
vt 0.625000 0.500000
vt 0.500000 1.000000
vt 0.500000 0.500000
vt 0.375000 1.000000
vt 0.375000 0.500000
vt 0.250000 1.000000
vt 0.250000 0.500000
vt 0.375000 1.000000
vt 0.250000 1.000000
vt 0.125000 1.000000
vt 0.125000 0.500000
vt 0.000000 1.000000
vt 0.000000 0.500000
vt 0.750000 0.500000
vt 0.875000 0.500000
vt 0.500000 1.000000
vt 0.500000 1.000000
vt 0.375000 1.000000
vt 0.625000 1.000000
vt 0.125000 1.000000
vt 0.875000 1.000000
vt 0.750000 1.000000
vt 0.000000 1.000000
vt 1.000000 1.000000
vt 0.419706 0.419706
vt 0.250000 0.490000
vt 0.080294 0.419706
vt 0.010000 0.250000
vt 0.080294 0.080294
vt 0.250000 0.010000
vt 0.419706 0.080294
vt 0.490000 0.250000
vt 0.750000 1.000000
vt 0.625000 1.000000
vt 1.000000 1.000000
vt 0.875000 1.000000
vt 0.125000 1.000000
vt 0.000000 1.000000
vt 0.250000 1.000000
vt 0.375000 0.500000
vt 0.250000 0.500000
vt 0.250000 0.500000
vt 0.375000 0.500000
vt 0.500000 0.500000
vt 0.000000 0.500000
vt 0.125000 0.500000
vt 1.000000 0.500000
vt 0.625000 0.500000
vt 0.750000 0.490000
vt 0.919706 0.419706
vt 0.990000 0.250000
vt 0.919706 0.080294
vt 0.750000 0.010000
vt 0.580294 0.080294
vt 0.510000 0.250000
vt 0.580294 0.419706
vt 0.500000 0.500000
vt 0.625000 0.500000
vt 0.750000 0.500000
vt 0.875000 0.500000
vt 0.125000 0.500000
vt 1.000000 0.500000
vt 0.000000 0.500000
vn 0.3827 0.9239 -0.0000
vn 0.9239 0.3827 -0.0000
vn 0.9239 -0.3827 0.0000
vn 0.3827 -0.9239 0.0000
vn -0.3827 -0.9239 -0.0000
vn -0.9239 -0.3827 -0.0000
vn 0.0000 0.0000 -1.0000
vn -0.9239 0.3827 -0.0000
vn -0.3827 0.9239 -0.0000
vn 0.0000 0.0000 1.0000
usemtl Gold.001
s off
f 25/27/11 26/28/11 28/29/11 27/30/11
f 27/30/12 28/29/12 30/31/12 29/32/12
f 29/32/13 30/31/13 32/33/13 31/34/13
f 31/34/14 32/33/14 34/35/14 33/36/14
f 33/36/15 34/35/15 36/37/15 35/38/15
f 35/38/16 36/37/16 38/39/16 37/40/16
f 38/39/17 36/37/17 46/41/17 47/42/17
f 37/40/18 38/39/18 40/43/18 39/44/18
f 39/44/19 40/43/19 26/45/19 25/46/19
f 27/30/20 29/32/20 59/47/20 58/48/20
f 46/41/15 45/49/15 53/50/15 54/51/15
f 34/35/17 32/33/17 44/52/17 45/49/17
f 40/43/17 38/39/17 47/42/17 48/53/17
f 30/31/17 28/29/17 42/54/17 43/55/17
f 36/37/17 34/35/17 45/49/17 46/41/17
f 26/45/17 40/43/17 48/53/17 41/56/17
f 28/29/17 26/28/17 41/57/17 42/54/17
f 32/33/17 30/31/17 43/55/17 44/52/17
f 50/58/20 49/59/20 56/60/20 55/61/20 54/62/20 53/63/20 52/64/20 51/65/20
f 44/52/13 43/55/13 51/66/13 52/67/13
f 42/54/11 41/57/11 49/68/11 50/69/11
f 41/56/19 48/53/19 56/70/19 49/71/19
f 47/42/16 46/41/16 54/51/16 55/72/16
f 45/49/14 44/52/14 52/67/14 53/50/14
f 43/55/12 42/54/12 50/69/12 51/66/12
f 48/53/18 47/42/18 55/72/18 56/70/18
f 62/73/16 63/74/16 71/75/16 70/76/16
f 33/36/20 35/38/20 62/73/20 61/77/20
f 39/44/20 25/46/20 57/78/20 64/79/20
f 25/27/20 27/30/20 58/48/20 57/80/20
f 29/32/20 31/34/20 60/81/20 59/47/20
f 35/38/20 37/40/20 63/74/20 62/73/20
f 31/34/20 33/36/20 61/77/20 60/81/20
f 37/40/20 39/44/20 64/79/20 63/74/20
f 65/82/17 66/83/17 67/84/17 68/85/17 69/86/17 70/87/17 71/88/17 72/89/17
f 60/81/14 61/77/14 69/90/14 68/91/14
f 58/48/12 59/47/12 67/92/12 66/93/12
f 63/74/18 64/79/18 72/94/18 71/75/18
f 61/77/15 62/73/15 70/76/15 69/90/15
f 59/47/13 60/81/13 68/91/13 67/92/13
f 57/80/11 58/48/11 66/93/11 65/95/11
f 64/79/19 57/78/19 65/96/19 72/94/19
